<svg width="20" height="20" viewBox="0 0 20 20" fill="none" xmlns="http://www.w3.org/2000/svg">
<g clip-path="url(#clip0_1_1092)">
<path d="M15 5C15 2.2425 12.7575 0 10 0C7.2425 0 5 2.2425 5 5C5.00151 6.18118 5.42052 7.32381 6.18298 8.22595C6.94543 9.12809 8.00225 9.73166 9.16667 9.93V19.1667C9.16667 19.3877 9.25446 19.5996 9.41074 19.7559C9.56702 19.9122 9.77899 20 10 20C10.221 20 10.433 19.9122 10.5893 19.7559C10.7455 19.5996 10.8333 19.3877 10.8333 19.1667V9.93C11.9977 9.73166 13.0546 9.12809 13.817 8.22595C14.5795 7.32381 14.9985 6.18118 15 5ZM10 8.33333C8.16167 8.33333 6.66667 6.83833 6.66667 5C6.66667 3.16167 8.16167 1.66667 10 1.66667C11.8383 1.66667 13.3333 3.16167 13.3333 5C13.3333 6.83833 11.8383 8.33333 10 8.33333Z" fill="#DF1C26"/>
</g>
<defs>
<clipPath id="clip0_1_1092">
<rect width="20" height="20" fill="white"/>
</clipPath>
</defs>
</svg>
