<svg width="32" height="22" viewBox="0 0 32 22" fill="none" xmlns="http://www.w3.org/2000/svg">
<path d="M0.0340099 2.55834C-0.10746 1.53354 0.177661 0.752501 1.16795 0.750014C5.12477 0.741723 9.08085 0.740891 13.0362 0.747524C13.1102 0.747524 13.1465 0.79064 13.145 0.876869C13.1349 1.59324 13.3054 2.24576 13.6565 2.83444C13.716 2.93394 13.6928 2.98369 13.5869 2.98369H2.31713C2.19234 2.98369 2.13938 3.05416 2.15824 3.19512C2.77926 7.90955 3.39448 12.6488 4.00389 17.413C4.13883 18.4776 4.89406 18.7736 5.78641 18.7736C12.6292 18.7803 19.4727 18.7811 26.317 18.7761C27.1636 18.7761 27.6076 18.0548 27.7317 17.1145C28.3237 12.6173 28.9135 8.12097 29.5012 3.62543C29.5128 3.53589 29.5578 3.49028 29.6361 3.48863L31.436 3.46375C31.4868 3.46209 31.5086 3.48945 31.5013 3.54584C30.9064 8.09941 30.313 12.6547 29.721 17.2115C29.3488 20.077 28.0081 21.0148 25.5748 21.0148C19.2674 21.0181 12.9608 21.0189 6.65482 21.0173C3.52941 21.0173 2.36936 20.2511 1.91883 16.7539C1.30797 12.0195 0.679694 7.2877 0.0340099 2.55834Z" fill="#242021"/>
</svg>
