<svg width="23" height="23" viewBox="0 0 23 23" fill="none" xmlns="http://www.w3.org/2000/svg">
<path d="M15.3333 18.6482H7.66661C6.90411 18.6482 6.17284 18.3585 5.63367 17.8427C5.09451 17.327 4.79161 16.6275 4.79161 15.8982V6.73153C4.79161 6.48841 4.69064 6.25525 4.51092 6.08335C4.33119 5.91144 4.08744 5.81486 3.83327 5.81486C3.57911 5.81486 3.33535 5.91144 3.15563 6.08335C2.97591 6.25525 2.87494 6.48841 2.87494 6.73153V15.8982C2.87494 17.1138 3.37977 18.2796 4.27839 19.1391C5.177 19.9986 6.39578 20.4815 7.66661 20.4815H15.3333C15.5874 20.4815 15.8312 20.385 16.0109 20.213C16.1906 20.0411 16.2916 19.808 16.2916 19.5649C16.2916 19.3217 16.1906 19.0886 16.0109 18.9167C15.8312 18.7448 15.5874 18.6482 15.3333 18.6482ZM20.1249 8.50986C20.115 8.42565 20.0957 8.34269 20.0674 8.26236V8.17986C20.0214 8.08561 19.9599 7.99897 19.8854 7.92319L14.1354 2.42319C14.0561 2.35189 13.9656 2.2931 13.867 2.24903H13.7808L13.4741 2.14819H9.58327C8.82077 2.14819 8.08951 2.43792 7.55034 2.95365C7.01117 3.46938 6.70827 4.16885 6.70827 4.89819V14.0649C6.70827 14.7942 7.01117 15.4937 7.55034 16.0094C8.08951 16.5251 8.82077 16.8149 9.58327 16.8149H17.2499C18.0124 16.8149 18.7437 16.5251 19.2829 16.0094C19.822 15.4937 20.1249 14.7942 20.1249 14.0649V8.56486C20.1249 8.56486 20.1249 8.56486 20.1249 8.50986ZM14.3749 5.27403L16.857 7.64819H15.3333C15.0791 7.64819 14.8354 7.55162 14.6556 7.37971C14.4759 7.2078 14.3749 6.97464 14.3749 6.73153V5.27403ZM18.2083 14.0649C18.2083 14.308 18.1073 14.5411 17.9276 14.713C17.7479 14.885 17.5041 14.9815 17.2499 14.9815H9.58327C9.32911 14.9815 9.08535 14.885 8.90563 14.713C8.72591 14.5411 8.62494 14.308 8.62494 14.0649V4.89819C8.62494 4.65508 8.72591 4.42192 8.90563 4.25001C9.08535 4.0781 9.32911 3.98153 9.58327 3.98153H12.4583V6.73153C12.4583 7.46087 12.7612 8.16035 13.3003 8.67607C13.8395 9.1918 14.5708 9.48153 15.3333 9.48153H18.2083V14.0649Z" fill="#DF1C26"/>
</svg>
