<svg width="48" height="48" viewBox="0 0 48 48" fill="none" xmlns="http://www.w3.org/2000/svg">
<g clip-path="url(#clip0_1_565)">
<path d="M21.5 24C22.4889 24 23.4556 23.7068 24.2779 23.1574C25.1001 22.6079 25.741 21.8271 26.1194 20.9134C26.4978 19.9998 26.5969 18.9945 26.4039 18.0246C26.211 17.0546 25.7348 16.1637 25.0355 15.4645C24.3363 14.7652 23.4454 14.289 22.4755 14.0961C21.5055 13.9031 20.5002 14.0022 19.5866 14.3806C18.673 14.759 17.8921 15.3999 17.3427 16.2222C16.7932 17.0444 16.5 18.0111 16.5 19C16.5013 20.3257 17.0285 21.5967 17.9659 22.5341C18.9033 23.4715 20.1743 23.9987 21.5 24ZM21.5 15.6667C22.1593 15.6667 22.8037 15.8622 23.3519 16.2284C23.9001 16.5947 24.3273 17.1153 24.5796 17.7244C24.8319 18.3335 24.8979 19.0037 24.7693 19.6503C24.6407 20.2969 24.3232 20.8909 23.857 21.357C23.3908 21.8232 22.7969 22.1407 22.1503 22.2693C21.5037 22.3979 20.8335 22.3319 20.2244 22.0796C19.6153 21.8273 19.0947 21.4001 18.7284 20.8519C18.3622 20.3037 18.1667 19.6593 18.1667 19C18.1667 18.1159 18.5179 17.2681 19.143 16.643C19.7681 16.0179 20.6159 15.6667 21.5 15.6667ZM29 33.1667C29 33.3877 28.9122 33.5996 28.7559 33.7559C28.5996 33.9122 28.3877 34 28.1667 34C27.9457 34 27.7337 33.9122 27.5774 33.7559C27.4211 33.5996 27.3333 33.3877 27.3333 33.1667C27.3333 31.6196 26.7188 30.1358 25.6248 29.0419C24.5308 27.9479 23.0471 27.3333 21.5 27.3333C19.9529 27.3333 18.4692 27.9479 17.3752 29.0419C16.2812 30.1358 15.6667 31.6196 15.6667 33.1667C15.6667 33.3877 15.5789 33.5996 15.4226 33.7559C15.2663 33.9122 15.0543 34 14.8333 34C14.6123 34 14.4004 33.9122 14.2441 33.7559C14.0878 33.5996 14 33.3877 14 33.1667C14 31.1775 14.7902 29.2699 16.1967 27.8634C17.6032 26.4568 19.5109 25.6667 21.5 25.6667C23.4891 25.6667 25.3968 26.4568 26.8033 27.8634C28.2098 29.2699 29 31.1775 29 33.1667ZM33.7558 25.9108C33.8354 25.9877 33.8989 26.0797 33.9426 26.1813C33.9863 26.283 34.0092 26.3924 34.0102 26.503C34.0112 26.6137 33.9901 26.7234 33.9482 26.8258C33.9063 26.9282 33.8444 27.0213 33.7662 27.0995C33.6879 27.1777 33.5949 27.2396 33.4925 27.2815C33.39 27.3234 33.2803 27.3445 33.1697 27.3435C33.059 27.3426 32.9497 27.3196 32.848 27.2759C32.7463 27.2322 32.6544 27.1688 32.5775 27.0892L31.0833 25.595L29.5892 27.0892C29.432 27.241 29.2215 27.325 29.003 27.3231C28.7845 27.3212 28.5755 27.2335 28.421 27.079C28.2665 26.9245 28.1788 26.7155 28.1769 26.497C28.175 26.2785 28.259 26.068 28.4108 25.9108L29.905 24.4167L28.4108 22.9225C28.259 22.7653 28.175 22.5548 28.1769 22.3363C28.1788 22.1178 28.2665 21.9088 28.421 21.7543C28.5755 21.5998 28.7845 21.5122 29.003 21.5103C29.2215 21.5084 29.432 21.5924 29.5892 21.7442L31.0833 23.2383L32.5775 21.7442C32.7347 21.5924 32.9452 21.5084 33.1637 21.5103C33.3822 21.5122 33.5912 21.5998 33.7457 21.7543C33.9002 21.9088 33.9878 22.1178 33.9897 22.3363C33.9916 22.5548 33.9076 22.7653 33.7558 22.9225L32.2617 24.4167L33.7558 25.9108Z" fill="#FF0005"/>
</g>
<defs>
<clipPath id="clip0_1_565">
<rect width="20" height="20" fill="white" transform="translate(14 14)"/>
</clipPath>
</defs>
</svg>
