<svg width="19" height="17" viewBox="0 0 19 17" fill="none" xmlns="http://www.w3.org/2000/svg">
<path d="M17.0653 1.73249C16.1344 0.722786 14.857 0.166687 13.4682 0.166687C12.43 0.166687 11.4793 0.494886 10.6424 1.14209C10.2201 1.46878 9.83738 1.86847 9.49999 2.33497C9.16274 1.8686 8.77993 1.46878 8.35747 1.14209C7.52065 0.494885 6.56994 0.166687 5.53183 0.166687C4.14302 0.166687 2.86548 0.722786 1.93454 1.73249C1.0147 2.7304 0.507996 4.09369 0.507996 5.57141C0.507996 7.09235 1.0748 8.48459 2.29169 9.95297C3.38029 11.2665 4.94486 12.5998 6.75668 14.1438C7.37534 14.6711 8.07661 15.2688 8.80476 15.9054C8.99713 16.0739 9.24397 16.1667 9.49999 16.1667C9.75589 16.1667 10.0029 16.0739 10.1949 15.9057C10.9231 15.2689 11.6248 14.671 12.2437 14.1434C14.0553 12.5997 15.6198 11.2665 16.7084 9.95284C17.9253 8.48459 18.492 7.09235 18.492 5.57128C18.492 4.0937 17.9853 2.73041 17.0653 1.7325L17.0653 1.73249Z" fill="#BCBCBC"/>
</svg>
