<svg width="25" height="24" viewBox="0 0 25 24" fill="none" xmlns="http://www.w3.org/2000/svg">
<path d="M17.125 17.9926V23.9926H21.125C22.7818 23.9926 24.125 22.6494 24.125 20.9926V11.8716C24.1252 11.3521 23.9233 10.8528 23.562 10.4796L15.064 1.29255C13.5646 -0.329796 11.0339 -0.429405 9.41155 1.07003C9.33449 1.14128 9.26023 1.21549 9.18903 1.29255L0.706016 10.4766C0.333734 10.8514 0.124859 11.3583 0.125 11.8866V20.9926C0.125 22.6494 1.46816 23.9926 3.125 23.9926H7.12498V17.9926C7.14369 15.2658 9.34527 13.039 12.0034 12.9749C14.7505 12.9086 17.1041 15.1733 17.125 17.9926Z" fill="#DF1C26"/>
<path d="M12.125 14.9926C10.4682 14.9926 9.125 16.3357 9.125 17.9926V23.9926H15.125V17.9926C15.125 16.3357 13.7818 14.9926 12.125 14.9926Z" fill="#DF1C26"/>
</svg>
