<svg width="49" height="48" viewBox="0 0 49 48" fill="none" xmlns="http://www.w3.org/2000/svg">
<path d="M4.97388 17.7079C4.97388 11.794 9.768 7.00006 15.6817 7.00006C18.3047 7.00006 20.7055 7.94456 22.5664 9.51085C23.6849 10.4523 25.3152 10.4523 26.4336 9.51085C28.2944 7.94449 30.6953 7.00006 33.3183 7.00006C39.232 7.00006 44.0261 11.794 44.0261 17.7079V17.393C44.0261 27.7775 31.3972 37.1434 26.4522 40.4128C25.8731 40.7958 25.1942 41 24.5 41C23.8057 41 23.1268 40.7958 22.5478 40.4128C17.6029 37.1434 4.97388 27.7775 4.97388 17.393" fill="#FF6464"/>
<path d="M4.97388 17.7079C4.97388 17.6626 4.98013 17.6189 4.98067 17.5737C4.97975 17.5134 4.97388 17.4534 4.97388 17.3929V17.7079ZM13.7318 18.4113C13.7313 18.46 13.727 18.5072 13.727 18.5561V18.2162C13.727 18.2814 13.7312 18.3461 13.7318 18.4113C13.7733 13.3096 15.9766 9.00509 19.0104 7.5391C17.9617 7.19541 16.8457 7 15.6817 7C9.81323 7 5.05328 11.7223 4.98067 17.5737C5.12627 27.8859 17.6317 37.1625 22.5478 40.4127C23.0523 40.7462 23.6209 40.9288 24.1986 40.9782C20.1421 36.4198 13.8186 27.815 13.7318 18.4113Z" fill="#D2555A"/>
<path d="M39.2616 18.6598C40.6115 18.6598 41.7057 17.5655 41.7057 16.2157C41.7057 14.8658 40.6115 13.7715 39.2616 13.7715C37.9118 13.7715 36.8175 14.8658 36.8175 16.2157C36.8175 17.5655 37.9118 18.6598 39.2616 18.6598Z" fill="#FF8B8B"/>
<path d="M36.1273 13.0831C36.971 13.0831 37.655 12.3992 37.655 11.5555C37.655 10.7118 36.971 10.0279 36.1273 10.0279C35.2837 10.0279 34.5997 10.7118 34.5997 11.5555C34.5997 12.3992 35.2837 13.0831 36.1273 13.0831Z" fill="#FFC1C1"/>
</svg>
