<svg width="10" height="20" viewBox="0 0 10 20" fill="none" xmlns="http://www.w3.org/2000/svg">
<path d="M10 5C10 2.2425 7.7575 0 5 0C2.2425 0 0 2.2425 0 5C0.00151007 6.18118 0.420519 7.32381 1.18298 8.22595C1.94543 9.12809 3.00225 9.73166 4.16667 9.93V19.1667C4.16667 19.3877 4.25446 19.5996 4.41074 19.7559C4.56702 19.9122 4.77899 20 5 20C5.22101 20 5.43297 19.9122 5.58926 19.7559C5.74554 19.5996 5.83333 19.3877 5.83333 19.1667V9.93C6.99775 9.73166 8.05457 9.12809 8.81702 8.22595C9.57948 7.32381 9.99849 6.18118 10 5ZM5 8.33333C3.16167 8.33333 1.66667 6.83833 1.66667 5C1.66667 3.16167 3.16167 1.66667 5 1.66667C6.83833 1.66667 8.33333 3.16167 8.33333 5C8.33333 6.83833 6.83833 8.33333 5 8.33333Z" fill="#DF1C26"/>
</svg>
