<svg width="20" height="21" viewBox="0 0 20 21" fill="none" xmlns="http://www.w3.org/2000/svg">
<g clip-path="url(#clip0_1_1356)">
<path d="M20 9.87251C19.8794 7.92253 19.1909 6.05044 18.0193 4.48703C16.8477 2.92363 15.2441 1.73726 13.4064 1.07417C11.5687 0.411093 9.57705 0.30029 7.6771 0.755425C5.77715 1.21056 4.05192 2.21174 2.71409 3.63553C1.37626 5.05932 0.484331 6.84348 0.148249 8.76806C-0.187833 10.6926 0.0466277 12.6735 0.822727 14.4664C1.59883 16.2594 2.88264 17.786 4.51589 18.8581C6.14914 19.9303 8.06043 20.501 10.0141 20.5H15.8333C16.938 20.4989 17.9972 20.0596 18.7784 19.2784C19.5595 18.4972 19.9989 17.4381 20 16.3333V9.87251ZM18.3333 16.3333C18.3333 16.9964 18.0699 17.6323 17.6011 18.1011C17.1322 18.57 16.4963 18.8333 15.8333 18.8333H10.0141C8.83824 18.8328 7.67567 18.5844 6.60221 18.1044C5.52876 17.6244 4.56853 16.9235 3.78413 16.0475C2.99594 15.1719 2.40407 14.1379 2.04821 13.0148C1.69235 11.8918 1.58071 10.7056 1.7208 9.53584C1.94199 7.69079 2.77095 5.97183 4.077 4.64995C5.38304 3.32806 7.09188 2.47844 8.93413 2.23501C9.29349 2.18997 9.65529 2.16715 10.0175 2.16668C11.9595 2.16138 13.8415 2.83993 15.3333 4.08334C16.2046 4.80746 16.9197 5.70097 17.4354 6.7097C17.9511 7.71843 18.2566 8.82138 18.3333 9.95168V16.3333Z" fill="#DF1C26"/>
<path d="M6.66659 8.00001H9.99992C10.2209 8.00001 10.4329 7.91221 10.5892 7.75593C10.7455 7.59965 10.8333 7.38769 10.8333 7.16668C10.8333 6.94566 10.7455 6.7337 10.5892 6.57742C10.4329 6.42114 10.2209 6.33334 9.99992 6.33334H6.66659C6.44557 6.33334 6.23361 6.42114 6.07733 6.57742C5.92105 6.7337 5.83325 6.94566 5.83325 7.16668C5.83325 7.38769 5.92105 7.59965 6.07733 7.75593C6.23361 7.91221 6.44557 8.00001 6.66659 8.00001ZM13.3333 9.66668H6.66659C6.44557 9.66668 6.23361 9.75447 6.07733 9.91075C5.92105 10.067 5.83325 10.279 5.83325 10.5C5.83325 10.721 5.92105 10.933 6.07733 11.0893C6.23361 11.2455 6.44557 11.3333 6.66659 11.3333H13.3333C13.5543 11.3333 13.7662 11.2455 13.9225 11.0893C14.0788 10.933 14.1666 10.721 14.1666 10.5C14.1666 10.279 14.0788 10.067 13.9225 9.91075C13.7662 9.75447 13.5543 9.66668 13.3333 9.66668ZM13.3333 13H6.66659C6.44557 13 6.23361 13.0878 6.07733 13.2441C5.92105 13.4004 5.83325 13.6123 5.83325 13.8333C5.83325 14.0544 5.92105 14.2663 6.07733 14.4226C6.23361 14.5789 6.44557 14.6667 6.66659 14.6667H13.3333C13.5543 14.6667 13.7662 14.5789 13.9225 14.4226C14.0788 14.2663 14.1666 14.0544 14.1666 13.8333C14.1666 13.6123 14.0788 13.4004 13.9225 13.2441C13.7662 13.0878 13.5543 13 13.3333 13Z" fill="#DF1C26"/>
</g>
<defs>
<clipPath id="clip0_1_1356">
<rect width="20" height="20" fill="white" transform="translate(0 0.5)"/>
</clipPath>
</defs>
</svg>
