<svg width="32" height="33" viewBox="0 0 32 33" fill="none" xmlns="http://www.w3.org/2000/svg">
<rect x="0.5" y="0.833374" width="31" height="31" rx="15.5" fill="#DF1C26"/>
<rect x="0.5" y="0.833374" width="31" height="31" rx="15.5" stroke="#DF1C26"/>
<g clip-path="url(#clip0_355_745)">
<path d="M13.5 22.3334C14.0523 22.3334 14.5 21.8857 14.5 21.3334C14.5 20.7811 14.0523 20.3334 13.5 20.3334C12.9477 20.3334 12.5 20.7811 12.5 21.3334C12.5 21.8857 12.9477 22.3334 13.5 22.3334Z" fill="white"/>
<path d="M18.5 22.3334C19.0523 22.3334 19.5 21.8857 19.5 21.3334C19.5 20.7811 19.0523 20.3334 18.5 20.3334C17.9477 20.3334 17.5 20.7811 17.5 21.3334C17.5 21.8857 17.9477 22.3334 18.5 22.3334Z" fill="white"/>
<path d="M21.5 11.8334H20.5V10.8334C20.5 10.7008 20.4473 10.5736 20.3536 10.4798C20.2598 10.3861 20.1326 10.3334 20 10.3334C19.8674 10.3334 19.7402 10.3861 19.6464 10.4798C19.5527 10.5736 19.5 10.7008 19.5 10.8334V11.8334H18.5C18.3674 11.8334 18.2402 11.8861 18.1464 11.9798C18.0527 12.0736 18 12.2008 18 12.3334C18 12.466 18.0527 12.5932 18.1464 12.6869C18.2402 12.7807 18.3674 12.8334 18.5 12.8334H19.5V13.8334C19.5 13.966 19.5527 14.0932 19.6464 14.1869C19.7402 14.2807 19.8674 14.3334 20 14.3334C20.1326 14.3334 20.2598 14.2807 20.3536 14.1869C20.4473 14.0932 20.5 13.966 20.5 13.8334V12.8334H21.5C21.6326 12.8334 21.7598 12.7807 21.8536 12.6869C21.9473 12.5932 22 12.466 22 12.3334C22 12.2008 21.9473 12.0736 21.8536 11.9798C21.7598 11.8861 21.6326 11.8334 21.5 11.8334Z" fill="white"/>
<path d="M20.8855 15.1964C20.8209 15.1843 20.7544 15.1851 20.6901 15.1989C20.6258 15.2126 20.5649 15.239 20.5108 15.2765C20.4568 15.314 20.4107 15.3618 20.3753 15.4173C20.3399 15.4727 20.3158 15.5346 20.3045 15.5994C20.2421 15.9455 20.0602 16.2586 19.7904 16.4842C19.5206 16.7097 19.1802 16.8333 18.8285 16.8334H12.709L12.239 12.8334H16.5C16.6326 12.8334 16.7598 12.7807 16.8536 12.6869C16.9473 12.5932 17 12.466 17 12.3334C17 12.2008 16.9473 12.0736 16.8536 11.9798C16.7598 11.8861 16.6326 11.8334 16.5 11.8334H12.121L12.1 11.6574C12.0569 11.2927 11.8815 10.9565 11.6071 10.7124C11.3327 10.4684 10.9782 10.3335 10.611 10.3334H10.5C10.3674 10.3334 10.2402 10.3861 10.1464 10.4798C10.0527 10.5736 10 10.7008 10 10.8334C10 10.966 10.0527 11.0932 10.1464 11.1869C10.2402 11.2807 10.3674 11.3334 10.5 11.3334H10.611C10.7335 11.3334 10.8517 11.3784 10.9432 11.4597C11.0347 11.5411 11.0932 11.6532 11.1075 11.7749L11.7955 17.6249C11.8669 18.2333 12.1592 18.7943 12.617 19.2014C13.0747 19.6085 13.6659 19.8334 14.2785 19.8334H19.5C19.6326 19.8334 19.7598 19.7807 19.8536 19.6869C19.9473 19.5932 20 19.466 20 19.3334C20 19.2008 19.9473 19.0736 19.8536 18.9798C19.7598 18.8861 19.6326 18.8334 19.5 18.8334H14.2785C13.9683 18.8334 13.6656 18.7373 13.4123 18.5582C13.159 18.3791 12.9674 18.1259 12.864 17.8334H18.8285C19.4146 17.8334 19.982 17.6276 20.4318 17.2518C20.8815 16.876 21.1849 16.3541 21.289 15.7774C21.3007 15.7127 21.2995 15.6464 21.2855 15.5822C21.2716 15.518 21.2451 15.4572 21.2076 15.4033C21.1702 15.3493 21.1224 15.3033 21.0672 15.2678C21.0119 15.2323 20.9502 15.208 20.8855 15.1964Z" fill="white"/>
</g>
<defs>
<clipPath id="clip0_355_745">
<rect width="12" height="12" fill="white" transform="translate(10 10.3334)"/>
</clipPath>
</defs>
</svg>
