<svg width="48" height="48" viewBox="0 0 48 48" fill="none" xmlns="http://www.w3.org/2000/svg">
<rect width="48" height="48" rx="16" fill="#EEEEEE"/>
<path d="M20.9593 34.0013C21.4806 35.1734 22.6364 36 24.0006 36C25.3647 36 26.5206 35.1734 27.0419 34.0013C26.0799 34.0483 25.0796 34.08 24.0006 34.08C22.9215 34.08 21.9212 34.0483 20.9593 34.0013Z" fill="#1F1F1F"/>
<path d="M34.5884 28.92C33.3231 27.3245 31.1996 24.1882 31.1996 21.12C31.1996 18.0778 29.2451 15.3408 26.3996 14.3347C26.3651 13.0406 25.3014 12 24.0006 12C22.6988 12 21.6361 13.0406 21.6015 14.3347C18.7551 15.3408 16.8006 18.0778 16.8006 21.12C16.8006 24.1891 14.678 27.3245 13.4118 28.92C12.9894 29.4528 12.8588 30.1565 13.0633 30.8025C13.263 31.4332 13.7602 31.9219 14.3939 32.1082C15.5036 32.4355 17.3228 32.8042 20.0972 32.9923C21.2982 33.0729 22.5894 33.12 24.0006 33.12C25.4108 33.12 26.7021 33.0729 27.903 32.9923C30.6784 32.8042 32.4966 32.4355 33.6073 32.1082C34.2409 31.9219 34.7372 31.4333 34.9369 30.8025C35.1414 30.1565 35.0099 29.4528 34.5884 28.92Z" fill="#1F1F1F"/>
<rect x="24.5" y="7.5" width="15" height="15" rx="7.5" fill="#DF1C26"/>
<rect x="24.5" y="7.5" width="15" height="15" rx="7.5" stroke="#EEEEEE"/>
</svg>
