<svg width="49" height="48" viewBox="0 0 49 48" fill="none" xmlns="http://www.w3.org/2000/svg">
<g clip-path="url(#clip0_1_499)">
<path d="M39.5118 15.3722V36.2812H4.66394V15.3722L22.0883 4.91809L39.5118 15.3722Z" fill="#FFA001"/>
<path d="M39.5117 15.3722V36.2812H22.0883V4.91809L39.5117 15.3722Z" fill="#F87F02"/>
<path d="M0.166748 15.3723L4.66375 4.91772H22.0879L17.5909 15.3723H0.166748Z" fill="#FFDA2D"/>
<path d="M44.009 15.3723L39.512 4.91772H22.0879L26.5849 15.3723H44.009Z" fill="#FCBE00"/>
<path d="M10.2649 27.5195H13.0774V30.332H10.2649V27.5195Z" fill="#FFDA2D"/>
<path d="M48.1668 32.7969C48.1668 38.4772 43.5618 43.0822 37.8815 43.0822C32.2002 43.0822 27.5952 38.4772 27.5952 32.7969C27.5952 27.1157 32.2002 22.5107 37.8815 22.5107C43.5618 22.5107 48.1668 27.1156 48.1668 32.7969Z" fill="#83E470"/>
<path d="M48.1668 32.7969C48.1668 38.4772 43.5618 43.0822 37.8815 43.0822V22.5107C43.5618 22.5107 48.1668 27.1156 48.1668 32.7969Z" fill="#01B763"/>
<path d="M43.2636 31.131L37.8814 36.513L36.9486 37.446L32.4983 32.9955L34.4877 31.0071L36.9486 33.468L37.8814 32.5353L41.2742 29.1425L43.2636 31.131Z" fill="#F3FDFF"/>
<path d="M43.2637 31.131L37.8815 36.513V32.5353L41.2743 29.1425L43.2637 31.131Z" fill="#D7F3F7"/>
</g>
<defs>
<clipPath id="clip0_1_499">
<rect width="48" height="48" fill="white" transform="translate(0.166748)"/>
</clipPath>
</defs>
</svg>
