<svg width="33" height="28" viewBox="0 0 33 28" fill="none" xmlns="http://www.w3.org/2000/svg">
<path d="M5.13064 18.5H2.61064V7.718H0.810641V5.36H5.13064V18.5ZM9.0417 6.962C10.0017 5.762 11.2497 5.162 12.7857 5.162C14.3217 5.162 15.5637 5.768 16.5117 6.98C17.4717 8.18 17.9517 9.83 17.9517 11.93C17.9517 14.03 17.4777 15.686 16.5297 16.898C15.5697 18.122 14.3217 18.734 12.7857 18.734C11.2497 18.734 10.0017 18.128 9.0417 16.916C8.0817 15.692 7.6017 14.03 7.6017 11.93C7.6017 9.83 8.0817 8.174 9.0417 6.962ZM10.1757 11.912C10.1757 13.352 10.4157 14.426 10.8957 15.134C11.3757 15.842 12.0057 16.196 12.7857 16.196C13.5537 16.196 14.1777 15.842 14.6577 15.134C15.1377 14.426 15.3777 13.352 15.3777 11.912C15.3777 10.508 15.1317 9.458 14.6397 8.762C14.1597 8.054 13.5417 7.7 12.7857 7.7C12.0057 7.7 11.3757 8.054 10.8957 8.762C10.4157 9.458 10.1757 10.508 10.1757 11.912Z" fill="#DF1C26"/>
<path d="M24.0011 12.938V10.922H26.9711V7.916H29.0051V10.922H32.0111V12.938H29.0051V15.926H26.9711V12.938H24.0011Z" fill="#DF1C26"/>
</svg>
