<svg width="20" height="21" viewBox="0 0 20 21" fill="none" xmlns="http://www.w3.org/2000/svg">
<g clip-path="url(#clip0_1_310)">
<path d="M6.64868 8.52317C6.95414 8.82863 6.95414 9.32317 6.64868 9.62786C6.3432 9.93333 5.84868 9.93333 5.54399 9.62786C5.23851 9.32239 5.23851 8.82786 5.54399 8.52317C5.84945 8.21769 6.34399 8.21769 6.64868 8.52317ZM17.4705 13.2771L17.0291 13.7185C17.008 14.6818 16.6346 15.638 15.908 16.3739L13.4339 18.8802C12.6971 19.6263 11.7143 20.0388 10.6659 20.0419H10.6526C9.60962 20.0419 8.62914 19.6357 7.89164 18.8982L2.09789 13.1536C1.59008 12.6466 1.34477 11.9489 1.42289 11.2372L2.02055 5.83411C2.06039 5.47786 2.33618 5.19427 2.69087 5.14583L8.07289 4.40989C8.80102 4.31302 9.53383 4.56067 10.0479 5.07473L15.8877 10.8654C16.1901 11.1677 16.4322 11.5083 16.6151 11.8716C17.2495 10.9607 17.1604 9.68801 16.3479 8.87552L10.4174 3.09036C10.2385 2.91146 9.99164 2.82864 9.75258 2.86223L4.37055 3.59817C3.94164 3.65598 3.54868 3.35677 3.49008 2.93021C3.43227 2.50286 3.73149 2.10911 4.15805 2.05051L9.54086 1.31379C10.2604 1.21145 11.001 1.46301 11.5159 1.97942L17.4447 7.76458C18.9651 9.28411 18.9744 11.7536 17.4705 13.2771ZM14.7846 11.9724L8.94477 6.18177C8.77055 6.00754 8.52602 5.92708 8.28305 5.95754L3.5057 6.61146L2.97524 11.4083C2.94945 11.645 3.0307 11.8779 3.19945 12.0458L8.9932 17.7903C9.43774 18.2357 10.026 18.4787 10.6518 18.4787H10.6596C11.2893 18.477 11.8791 18.2294 12.3206 17.781L14.7947 15.2747C15.6971 14.3607 15.6924 12.8786 14.7839 11.9708L14.7846 11.9724Z" fill="#DF1C26"/>
</g>
<defs>
<clipPath id="clip0_1_310">
<rect width="20" height="20" fill="white" transform="translate(0 0.666626)"/>
</clipPath>
</defs>
</svg>
