<svg width="36" height="36" viewBox="0 0 36 36" fill="none" xmlns="http://www.w3.org/2000/svg">
<g clip-path="url(#clip0_1_556)">
<path d="M18.0083 27.725C17.6083 27.725 17.2083 27.5833 16.8917 27.3L13.7667 24.6667H11.3333C9.49167 24.6667 8 23.175 8 21.3333V11.3333C8 9.49167 9.49167 8 11.3333 8H24.6667C26.5083 8 28 9.49167 28 11.3333V21.3333C28 23.175 26.5083 24.6667 24.6667 24.6667H22.2917L19.0833 27.3167C18.7833 27.5833 18.3917 27.725 18.0083 27.725ZM11.3333 9.66667C10.4167 9.66667 9.66667 10.4167 9.66667 11.3333V21.3333C9.66667 22.25 10.4167 23 11.3333 23H14.075C14.275 23 14.4583 23.0667 14.6083 23.2L17.9833 26.0417L21.4583 23.1917C21.6083 23.0667 21.7917 23 21.9917 23H24.6667C25.5833 23 26.3333 22.25 26.3333 21.3333V11.3333C26.3333 10.4167 25.5833 9.66667 24.6667 9.66667H11.3333ZM15.5083 20.7917C15.35 20.7917 15.1833 20.7417 15.05 20.6417C14.9234 20.5466 14.8297 20.4144 14.7819 20.2635C14.7341 20.1126 14.7346 19.9506 14.7833 19.8L15.5 17.5L13.6833 16.025C13.5648 15.9241 13.4799 15.7896 13.4397 15.6392C13.3995 15.4889 13.406 15.3299 13.4583 15.1833C13.5667 14.8833 13.8583 14.6833 14.175 14.6833H16.4667L17.275 12.5083C17.3833 12.2083 17.675 12.0083 17.9917 12.0083C18.3083 12.0083 18.6 12.2083 18.7083 12.5083L19.5167 14.6833H21.8083C22.125 14.6833 22.4167 14.8833 22.525 15.1833C22.6333 15.4833 22.5417 15.825 22.3 16.0333L20.4917 17.5083L21.2417 19.7833C21.3417 20.0917 21.2417 20.4333 20.9833 20.625C20.725 20.825 20.375 20.8333 20.1 20.6583L18 19.2917L15.9333 20.675C15.8083 20.7583 15.6583 20.8 15.5083 20.8V20.7917Z" fill="#DF1C26"/>
</g>
<defs>
<clipPath id="clip0_1_556">
<rect width="20" height="20" fill="white" transform="translate(8 8)"/>
</clipPath>
</defs>
</svg>
