<svg width="25" height="24" viewBox="0 0 25 24" fill="none" xmlns="http://www.w3.org/2000/svg">
<path d="M2.48206 18C3.30922 19.4356 5.14358 19.9288 6.57917 19.1017C6.58016 19.1011 6.5811 19.1005 6.58208 19.1L7.02706 18.843C7.86706 19.5616 8.8326 20.119 9.87505 20.487V21C9.87505 22.6568 11.2182 24 12.875 24C14.5319 24 15.875 22.6568 15.875 21V20.487C16.9176 20.1184 17.8832 19.5604 18.723 18.841L19.17 19.099C20.606 19.9274 22.4416 19.4349 23.2701 17.999C24.0985 16.563 23.606 14.7274 22.17 13.899L21.726 13.643C21.9259 12.5554 21.9259 11.4405 21.726 10.353L22.17 10.097C23.606 9.26855 24.0985 7.43292 23.2701 5.99695C22.4416 4.56103 20.606 4.06852 19.17 4.89694L18.725 5.15395C17.8842 4.43616 16.918 3.87984 15.875 3.513V3C15.875 1.34316 14.5319 0 12.875 0C11.2182 0 9.87505 1.34316 9.87505 3V3.513C8.83246 3.88158 7.86688 4.43958 7.02706 5.15902L6.58006 4.90003C5.1441 4.07156 3.30847 4.56408 2.48005 6C1.65163 7.43592 2.1441 9.27159 3.58006 10.1L4.02406 10.356C3.82419 11.4435 3.82419 12.5584 4.02406 13.646L3.58006 13.902C2.14808 14.7326 1.65721 16.5647 2.48206 18ZM12.875 8.00002C15.0842 8.00002 16.875 9.79088 16.875 12C16.875 14.2091 15.0842 16 12.875 16C10.6659 16 8.87506 14.2091 8.87506 12C8.87506 9.79088 10.6659 8.00002 12.875 8.00002Z" fill="#DF1C26"/>
</svg>
