<svg width="33" height="33" viewBox="0 0 33 33" fill="none" xmlns="http://www.w3.org/2000/svg">
<rect x="1" y="0.666687" width="31" height="31" rx="15.5" fill="#DF1C26"/>
<rect x="1" y="0.666687" width="31" height="31" rx="15.5" stroke="#DF1C26"/>
<g clip-path="url(#clip0_75_789)">
<path d="M14 22.1667C14.5523 22.1667 15 21.719 15 21.1667C15 20.6144 14.5523 20.1667 14 20.1667C13.4477 20.1667 13 20.6144 13 21.1667C13 21.719 13.4477 22.1667 14 22.1667Z" fill="white"/>
<path d="M19 22.1667C19.5523 22.1667 20 21.719 20 21.1667C20 20.6144 19.5523 20.1667 19 20.1667C18.4477 20.1667 18 20.6144 18 21.1667C18 21.719 18.4477 22.1667 19 22.1667Z" fill="white"/>
<path d="M22 11.6667H21V10.6667C21 10.5341 20.9473 10.4069 20.8536 10.3131C20.7598 10.2194 20.6326 10.1667 20.5 10.1667C20.3674 10.1667 20.2402 10.2194 20.1464 10.3131C20.0527 10.4069 20 10.5341 20 10.6667V11.6667H19C18.8674 11.6667 18.7402 11.7194 18.6464 11.8131C18.5527 11.9069 18.5 12.0341 18.5 12.1667C18.5 12.2993 18.5527 12.4265 18.6464 12.5202C18.7402 12.614 18.8674 12.6667 19 12.6667H20V13.6667C20 13.7993 20.0527 13.9265 20.1464 14.0202C20.2402 14.114 20.3674 14.1667 20.5 14.1667C20.6326 14.1667 20.7598 14.114 20.8536 14.0202C20.9473 13.9265 21 13.7993 21 13.6667V12.6667H22C22.1326 12.6667 22.2598 12.614 22.3536 12.5202C22.4473 12.4265 22.5 12.2993 22.5 12.1667C22.5 12.0341 22.4473 11.9069 22.3536 11.8131C22.2598 11.7194 22.1326 11.6667 22 11.6667Z" fill="white"/>
<path d="M21.3855 15.0297C21.3209 15.0176 21.2544 15.0184 21.1901 15.0322C21.1258 15.046 21.0649 15.0723 21.0108 15.1098C20.9568 15.1473 20.9107 15.1952 20.8753 15.2506C20.8399 15.306 20.8158 15.3679 20.8045 15.4327C20.7421 15.7788 20.5602 16.0919 20.2904 16.3175C20.0206 16.543 19.6802 16.6666 19.3285 16.6667H13.209L12.739 12.6667H17C17.1326 12.6667 17.2598 12.614 17.3536 12.5202C17.4473 12.4265 17.5 12.2993 17.5 12.1667C17.5 12.0341 17.4473 11.9069 17.3536 11.8131C17.2598 11.7194 17.1326 11.6667 17 11.6667H12.621L12.6 11.4907C12.5569 11.126 12.3815 10.7898 12.1071 10.5457C11.8327 10.3017 11.4782 10.1668 11.111 10.1667H11C10.8674 10.1667 10.7402 10.2194 10.6464 10.3131C10.5527 10.4069 10.5 10.5341 10.5 10.6667C10.5 10.7993 10.5527 10.9265 10.6464 11.0202C10.7402 11.114 10.8674 11.1667 11 11.1667H11.111C11.2335 11.1667 11.3517 11.2117 11.4432 11.293C11.5347 11.3744 11.5932 11.4866 11.6075 11.6082L12.2955 17.4582C12.3669 18.0666 12.6592 18.6276 13.117 19.0347C13.5747 19.4418 14.1659 19.6667 14.7785 19.6667H20C20.1326 19.6667 20.2598 19.614 20.3536 19.5202C20.4473 19.4265 20.5 19.2993 20.5 19.1667C20.5 19.0341 20.4473 18.9069 20.3536 18.8131C20.2598 18.7194 20.1326 18.6667 20 18.6667H14.7785C14.4683 18.6667 14.1656 18.5706 13.9123 18.3915C13.659 18.2124 13.4674 17.9592 13.364 17.6667H19.3285C19.9146 17.6667 20.482 17.4609 20.9318 17.0851C21.3815 16.7093 21.6849 16.1874 21.789 15.6107C21.8007 15.546 21.7995 15.4797 21.7855 15.4155C21.7716 15.3513 21.7451 15.2905 21.7076 15.2366C21.6702 15.1826 21.6224 15.1366 21.5672 15.1011C21.5119 15.0656 21.4502 15.0413 21.3855 15.0297Z" fill="white"/>
</g>
<defs>
<clipPath id="clip0_75_789">
<rect width="12" height="12" fill="white" transform="translate(10.5 10.1667)"/>
</clipPath>
</defs>
</svg>
